<svg width="90" height="24" viewBox="0 0 90 24" fill="none" xmlns="http://www.w3.org/2000/svg">
<g clip-path="url(#clip0_35_449)">
<path d="M22.851 21.9754C21.9271 23.2024 20.2561 23.8106 18.7598 23.4676C17.817 23.2508 17.0089 22.712 16.2344 22.1122C15.8388 21.8071 15.4515 21.4851 15.0601 21.1841C13.9026 20.2918 12.4568 19.5026 11.0383 19.8562C11.8949 19.208 12.7682 18.5072 13.8037 18.1789C14.7991 17.8611 15.9903 17.8001 16.9836 18.1831C17.0467 18.2083 17.1099 18.2336 17.1709 18.261C18.2127 18.7345 18.9492 19.6499 19.7363 20.4455C19.7742 20.4833 19.81 20.5191 19.8479 20.557C20.6728 21.3651 21.7104 22.0912 22.851 21.9797V21.9754Z" fill="#E93C0B"/>
<path d="M22.851 21.9754C21.9271 23.2024 20.2561 23.8106 18.7598 23.4676C17.817 23.2508 17.0088 22.712 16.2344 22.1122C16.3754 22.148 16.5185 22.1964 16.6279 22.2133C17.2151 22.3059 18.12 22.4911 18.1537 21.6492C18.1642 21.3967 18.179 21.1736 18.2463 20.9274C18.3263 21.0894 18.4441 21.262 18.6567 21.4325C18.8377 21.5693 19.0481 21.6682 19.2733 21.704C19.3049 21.4535 19.2796 21.1947 19.1997 20.9569C19.4396 21.1799 19.7637 21.3083 20.0899 21.3104C20.033 21.0516 19.951 20.799 19.8478 20.5549C20.6728 21.363 21.7103 22.0891 22.851 21.9776V21.9754Z" fill="#F2BFA6"/>
<path d="M17.0972 10.3522V10.6026C17.0909 11.1877 17.0236 11.758 16.9078 12.3073C16.8931 12.3725 16.8784 12.4377 16.8636 12.5051C16.8615 12.5177 16.8594 12.5282 16.8552 12.5388C16.8468 12.5787 16.8363 12.6187 16.8236 12.6587C16.8152 12.6903 16.8068 12.7219 16.7984 12.7534C16.7879 12.7913 16.7773 12.8313 16.7668 12.8692C16.7563 12.9092 16.7437 12.947 16.7331 12.987C16.7016 13.088 16.67 13.1891 16.6363 13.2901C16.6258 13.3195 16.6132 13.3511 16.6027 13.3827C16.5942 13.4058 16.5858 13.4269 16.5774 13.45C16.5774 13.4521 16.5774 13.4542 16.5753 13.4563C16.5564 13.511 16.5353 13.5637 16.5143 13.6184C16.3649 13.9972 16.1902 14.3655 15.9902 14.719C15.9608 14.7696 15.9313 14.8201 15.9019 14.8706C15.8724 14.9211 15.8429 14.9695 15.8114 15.02C15.7503 15.1189 15.6851 15.2157 15.6199 15.3125C15.5883 15.3609 15.5546 15.4093 15.5209 15.4556C15.4894 15.4998 15.4557 15.544 15.4241 15.5903C15.422 15.5945 15.4178 15.5987 15.4157 15.6029C15.3841 15.645 15.3526 15.6871 15.321 15.7292C15.2936 15.7671 15.2621 15.805 15.2326 15.8429C15.1947 15.8892 15.1569 15.9355 15.119 15.9818C14.4666 16.7646 13.6753 17.4276 12.7851 17.9348C12.7261 17.9684 12.6672 18.0021 12.6062 18.0358C12.5599 18.061 12.5136 18.0863 12.4673 18.1094C12.4378 18.1263 12.4083 18.141 12.3747 18.1557C12.3494 18.1684 12.3263 18.181 12.301 18.1915C12.2568 18.2126 12.2126 18.2357 12.1663 18.2546C12.1116 18.2799 12.0569 18.3052 12.0022 18.3304C11.5581 18.5261 11.0909 18.684 10.6048 18.8039C10.3459 18.8671 10.0892 18.9197 9.83241 18.9576C9.81978 18.9597 9.80715 18.9618 9.79453 18.9639C9.74402 18.9723 9.6914 18.9786 9.6409 18.9849C9.57145 18.9933 9.49989 19.0018 9.42834 19.0102C9.19684 19.0333 8.96113 19.0481 8.72543 19.0523C8.67071 19.0523 8.61599 19.0544 8.56127 19.0544C8.50656 19.0544 8.45184 19.0544 8.39502 19.0523C7.94044 19.0438 7.49218 18.9996 7.05864 18.9239C6.9913 18.9113 6.92395 18.8986 6.8545 18.8839C6.8545 18.8839 6.8503 18.8839 6.84819 18.8839C6.7135 18.8565 6.57671 18.825 6.44412 18.7934C6.3852 18.7787 6.32837 18.7618 6.27155 18.7471C6.23998 18.7387 6.20842 18.7303 6.17895 18.7197C6.13897 18.7092 6.10109 18.6966 6.0632 18.6861C6.01901 18.6713 5.97481 18.6566 5.92851 18.6419C5.8759 18.625 5.82539 18.6082 5.77488 18.5914C5.44447 18.4777 5.12038 18.343 4.8068 18.1894C4.60056 18.0884 4.40063 17.979 4.2028 17.8632C4.1986 17.8632 4.19439 17.859 4.19018 17.8569C4.14598 17.8316 4.10389 17.8043 4.0597 17.7769C4.05128 17.7727 4.04286 17.7685 4.03444 17.7622C3.99656 17.739 3.96078 17.7159 3.9229 17.6906C3.87871 17.6633 3.83451 17.6338 3.79032 17.6022C3.75033 17.577 3.71035 17.5496 3.67036 17.5202C3.60512 17.476 3.54198 17.4297 3.47674 17.3813C3.42203 17.3392 3.36941 17.2992 3.31469 17.2571C3.25998 17.2171 3.20736 17.1729 3.15475 17.1308C3.10214 17.0866 3.04952 17.0445 2.99691 17.0004C2.17404 16.2932 1.48586 15.4325 0.976568 14.4602C0.974463 14.4539 0.970254 14.4476 0.968149 14.4434C0.940791 14.3865 0.911327 14.3318 0.883968 14.275C0.843983 14.1929 0.803997 14.1108 0.766115 14.0267C0.749279 13.9909 0.732443 13.9551 0.717711 13.9172C0.694561 13.8646 0.671412 13.812 0.650366 13.7594C0.631426 13.7131 0.612485 13.6668 0.593544 13.6205C0.593544 13.6163 0.59144 13.6142 0.59144 13.6121C0.572499 13.5637 0.553558 13.5153 0.534617 13.4647C0.528304 13.4479 0.52199 13.4332 0.517781 13.4163C0.515677 13.4079 0.511468 13.3974 0.509363 13.389C0.494631 13.349 0.482004 13.3111 0.469377 13.2711C0.389405 13.0375 0.319956 12.7997 0.261029 12.5556C0.250507 12.5135 0.239984 12.4693 0.229461 12.4272C0.210521 12.3494 0.193684 12.2694 0.178953 12.1894C0.176848 12.181 0.174744 12.1705 0.172639 12.1578C0.166326 12.1284 0.160012 12.0989 0.153698 12.0673C0.143176 12.0084 0.132653 11.9474 0.122131 11.8885C0.111608 11.8211 0.101085 11.7538 0.0926673 11.6864C0.0442632 11.3329 0.0169044 10.973 0.0126953 10.6089V10.3248C0.0253225 9.73132 0.0989808 9.15047 0.231566 8.58436C0.242089 8.54437 0.252611 8.50649 0.261029 8.4644C0.267343 8.43494 0.275761 8.40758 0.282074 8.37811C0.959731 5.50544 0.827146 2.63066 0.0211134 0C1.58688 0.00631357 3.00533 0.64188 4.03234 1.66889C4.36275 1.9993 4.65317 2.36969 4.89309 2.77376C4.93939 2.85163 4.98569 2.9316 5.02778 3.01157C5.4571 3.8134 5.70123 4.72887 5.70123 5.70116V8.96317C5.70123 12.1873 7.00813 14.8874 8.60126 14.8285C10.1481 14.7696 11.3919 12.2168 11.3919 9.07682V5.70116C11.3919 4.72887 11.6339 3.8134 12.0653 3.01157C12.1074 2.9316 12.1537 2.85163 12.2 2.77587C13.1933 1.11961 15.0053 0.0084181 17.0762 0C17.0762 0.00210452 17.0762 0.00631357 17.0741 0.0084181C16.308 2.5107 16.1523 5.23395 16.7352 7.96142C16.771 8.12557 16.8089 8.29183 16.8489 8.45598C16.8678 8.52964 16.8826 8.60119 16.8994 8.67485C16.9415 8.86847 16.9773 9.06208 17.0067 9.2557C17.0614 9.62189 17.0909 9.98597 17.0972 10.3501V10.3522Z" fill="#E84125"/>
<path d="M16.7332 7.96142C15.7735 7.3974 15.0833 5.8632 15.0833 4.06173C15.0833 2.05401 15.9377 0.378813 17.072 0.00841713C16.306 2.5128 16.1502 5.23395 16.7332 7.96142Z" fill="#F2BFA6"/>
<path d="M17.072 0.00841785C17.0426 0.105226 17.0131 0.204139 16.9857 0.300947C15.9756 0.816555 15.239 2.39074 15.239 4.25324C15.239 5.55594 15.5989 6.71975 16.1629 7.47527C15.5126 6.73238 15.0833 5.48018 15.0833 4.05963C15.0833 2.05191 15.9377 0.37671 17.072 0.00631332V0.00841785Z" fill="#FF623C"/>
<path d="M8.38239 19.0481C7.92781 19.0396 7.47955 18.9954 7.04601 18.9197C6.97867 18.907 6.90922 18.8944 6.84188 18.8818C6.84188 18.8818 6.83767 18.8818 6.83556 18.8818C6.70087 18.8544 6.56618 18.8229 6.43149 18.7892C6.37467 18.7745 6.31574 18.7576 6.25892 18.7429C6.22735 18.7345 6.19579 18.7261 6.16632 18.7155C6.12844 18.705 6.08846 18.6924 6.05057 18.6819C6.00638 18.6692 5.96008 18.6545 5.91588 18.6398C5.86327 18.6229 5.81276 18.6061 5.76015 18.5893C5.42974 18.4735 5.10564 18.3388 4.79417 18.1873C4.58793 18.0863 4.38589 17.9768 4.18807 17.8611C4.18386 17.8611 4.17965 17.8569 4.17544 17.8548C4.13125 17.8295 4.08916 17.8022 4.04496 17.7748C4.03654 17.7706 4.02813 17.7643 4.01971 17.7601C3.98183 17.7369 3.94605 17.7138 3.90817 17.6885C3.86397 17.6612 3.81978 17.6317 3.77558 17.6001C3.7356 17.5749 3.69561 17.5475 3.65563 17.5181C3.59038 17.4739 3.52514 17.4255 3.46201 17.3792C3.40729 17.3392 3.35257 17.2971 3.29996 17.255C3.24524 17.2129 3.19263 17.1708 3.14002 17.1287C3.0874 17.0866 3.03479 17.0424 2.98218 16.9982C2.1572 16.2911 1.47113 15.4283 0.961833 14.4581C0.959729 14.4518 0.95552 14.4476 0.953415 14.4412C0.923952 14.3844 0.896593 14.3297 0.869234 14.2729C0.829248 14.1908 0.789262 14.1087 0.753485 14.0245C0.736649 13.9888 0.719813 13.953 0.705081 13.9151C0.681932 13.8625 0.658782 13.8099 0.637737 13.7573C0.618796 13.711 0.599855 13.6647 0.583019 13.6184C0.583019 13.6142 0.57881 13.6121 0.57881 13.61C0.559869 13.5616 0.540928 13.5132 0.521988 13.4626C0.515674 13.4458 0.509361 13.4311 0.505152 13.4142C0.500943 13.4058 0.498838 13.3953 0.494629 13.3869C1.62476 13.4206 2.82223 13.6962 3.98393 14.2392C6.28418 15.3125 7.87941 17.1603 8.37607 19.0523L8.38239 19.0481Z" fill="#F2BFA6"/>
<path d="M16.5985 13.3827C16.5901 13.4058 16.5817 13.4269 16.5733 13.45C16.5733 13.4521 16.5733 13.4542 16.5712 13.4563C16.5522 13.511 16.5312 13.5637 16.5102 13.6184C16.3607 13.9993 16.1861 14.3655 15.984 14.719C15.9546 14.7696 15.9251 14.8201 15.8956 14.8706C15.8662 14.9211 15.8346 14.9695 15.8051 15.02C15.7441 15.1189 15.681 15.2157 15.6136 15.3125C15.5821 15.3609 15.5484 15.4093 15.5147 15.4556C15.4831 15.4998 15.4516 15.5461 15.4179 15.5903C15.4158 15.5945 15.4116 15.5987 15.4074 15.6029C15.3758 15.645 15.3442 15.6871 15.3106 15.7292C15.2811 15.7671 15.2538 15.805 15.2222 15.8408C15.1843 15.8871 15.1464 15.9334 15.1085 15.9797C14.4561 16.7604 13.6648 17.4255 12.7746 17.9327C12.7157 17.9663 12.6568 18 12.5957 18.0316C12.5494 18.0568 12.5031 18.0821 12.4547 18.1052C12.4253 18.1221 12.3937 18.1368 12.3642 18.1515C12.339 18.1642 12.3158 18.1768 12.2906 18.1873C12.2464 18.2083 12.2022 18.2294 12.1559 18.2504C12.1012 18.2757 12.0465 18.3009 11.9896 18.3262C11.5456 18.5219 11.0784 18.6798 10.5922 18.7997C10.3334 18.8629 10.0766 18.9155 9.81987 18.9533C9.80724 18.9576 9.79462 18.9576 9.78199 18.9597C9.73148 18.9681 9.67887 18.9744 9.62836 18.9807C9.55891 18.9912 9.48736 18.9975 9.4158 19.006C9.1843 19.0291 8.9486 19.0438 8.71289 19.0481C9.21166 17.1561 10.8069 15.3083 13.105 14.235C14.2667 13.692 15.4663 13.4163 16.5964 13.3827H16.5985Z" fill="#F2BFA6"/>
<path d="M13.6353 15.262C13.6353 15.262 13.629 15.2767 13.629 15.2831C13.6227 15.302 13.6164 15.3188 13.608 15.3378C13.5785 15.4135 13.547 15.4851 13.5112 15.5566C13.1681 15.5819 12.8104 15.6745 12.4631 15.8344C11.8086 16.1396 11.3225 16.6321 11.0889 17.1624C11.0531 17.1666 11.0194 17.1687 10.9836 17.1687C11.1499 16.531 11.6887 15.9081 12.4631 15.5461C12.8546 15.363 13.2586 15.2704 13.6374 15.2599L13.6353 15.262Z" fill="#242124"/>
<path d="M3.46207 15.262C3.46207 15.262 3.46838 15.2767 3.46838 15.2831C3.47469 15.302 3.48101 15.3188 3.48942 15.3378C3.51889 15.4135 3.55046 15.4851 3.58623 15.5566C3.92927 15.5819 4.28704 15.6745 4.63429 15.8344C5.28879 16.1396 5.77494 16.6321 6.00854 17.1624C6.04432 17.1666 6.07799 17.1687 6.11377 17.1687C5.94751 16.531 5.40875 15.9081 4.63429 15.5461C4.24284 15.363 3.83878 15.2704 3.45996 15.2599L3.46207 15.262Z" fill="#242124"/>
<path d="M8.38242 19.0481C8.38242 19.0481 8.36558 19.0481 8.35717 19.0481C7.74896 17.3034 6.22318 15.6408 4.08919 14.6454C2.94643 14.1129 1.77 13.8372 0.658816 13.7973C0.652502 13.7825 0.646189 13.7678 0.64198 13.7531C0.623039 13.7068 0.604098 13.6605 0.587262 13.6142C0.587262 13.61 0.585158 13.6079 0.585158 13.6058C0.566217 13.5573 0.547276 13.5089 0.528335 13.4584C0.522022 13.4416 0.515708 13.4269 0.511499 13.41C0.50729 13.4016 0.505186 13.3911 0.500977 13.3827C1.63111 13.4163 2.82858 13.692 3.99238 14.235C6.29263 15.3062 7.88786 17.1561 8.38663 19.0481H8.38242Z" fill="#FF623C"/>
<path d="M8.71271 19.0481C8.71271 19.0481 8.72954 19.0481 8.73796 19.0481C9.34617 17.3034 10.8719 15.6408 13.0059 14.6454C14.1487 14.1129 15.3251 13.8372 16.4363 13.7973C16.4426 13.7825 16.4489 13.7678 16.4531 13.7531C16.4721 13.7068 16.491 13.6605 16.5079 13.6142C16.5079 13.61 16.51 13.6079 16.51 13.6058C16.5289 13.5573 16.5479 13.5089 16.5668 13.4584C16.5731 13.4416 16.5794 13.4269 16.5836 13.41C16.5878 13.4016 16.5899 13.3911 16.5941 13.3827C15.464 13.4163 14.2665 13.692 13.1027 14.235C10.8025 15.3062 9.20727 17.1561 8.7085 19.0481H8.71271Z" fill="#FF623C"/>
<path d="M8.57811 19.2543C8.9791 19.2543 9.30417 19.0319 9.30417 18.7576C9.30417 18.4833 8.9791 18.261 8.57811 18.261C8.17712 18.261 7.85205 18.4833 7.85205 18.7576C7.85205 19.0319 8.17712 19.2543 8.57811 19.2543Z" fill="#242124"/>
<path d="M0.359825 7.953C1.31949 7.38899 2.00977 5.85479 2.00977 4.05331C2.00767 2.0456 1.15323 0.372501 0.0209961 0C0.787043 2.50438 0.942778 5.22553 0.359825 7.953Z" fill="#F2BFA6"/>
<path d="M0.0209961 0.00841904C0.0504594 0.105227 0.0799228 0.20414 0.107282 0.300948C1.11745 0.816557 1.85404 2.39074 1.85404 4.25324C1.85404 5.55595 1.49416 6.71975 0.930151 7.47527C1.58045 6.73238 2.00977 5.48018 2.00977 4.05963C2.00767 2.05402 1.15323 0.38092 0.0209961 0.00841904Z" fill="#FF623C"/>
<path d="M31.9214 23.375C31.8541 23.4423 31.7804 23.5054 31.7046 23.5623C31.3574 23.8295 30.9449 23.9747 30.5282 23.9979C30.0189 24.0274 29.6275 23.8401 29.1855 23.6401C29.1603 23.6275 29.135 23.6149 29.1098 23.6044C28.6552 23.396 28.1606 23.276 27.6618 23.2424C27.2599 23.2171 26.8516 23.2487 26.4623 23.3392C26.2644 23.3834 26.0771 23.4528 25.8856 23.5181C25.7257 23.5728 25.7004 23.5118 25.6962 23.356C25.6857 23.0761 25.6962 22.7899 25.6962 22.5079V15.2662C25.6962 14.3276 24.9386 13.5721 24.0021 13.5721C23.0656 13.5721 22.3079 14.3276 22.3079 15.2662V20.0856C22.0533 19.9909 21.6639 19.7636 21.1294 19.2396L21.0389 19.1512C20.9042 19.0144 20.7674 18.8734 20.6327 18.7303C20.1361 18.2083 19.5931 17.638 18.9133 17.1582V9.83023H22.3079V10.4679C22.8383 10.2785 23.4086 10.1754 24.0021 10.1754C24.5955 10.1754 25.1659 10.2785 25.6962 10.4679C27.6745 11.1645 29.0908 13.0481 29.0908 15.2662V20.1277C29.1119 20.1256 29.1287 20.1256 29.1497 20.1235C29.3391 20.1129 29.5286 20.1277 29.7138 20.1677C30.1094 20.2476 30.4819 20.4455 30.7892 20.7485C30.8397 20.799 30.8923 20.8453 30.9449 20.8895C30.947 20.8916 30.9512 20.8937 30.9533 20.8979C31.3974 21.2578 31.953 21.4156 32.4917 21.3693C32.6559 22.0659 32.4665 22.8299 31.9214 23.375Z" fill="#E84125"/>
<path d="M31.9214 23.375C31.8541 23.4423 31.7804 23.5054 31.7047 23.5623C31.3574 23.8295 30.9449 23.9747 30.5282 23.9979C30.0189 24.0274 29.6275 23.8401 29.1855 23.6401C29.6738 23.4697 30.141 23.2024 29.8864 22.6068C29.7874 22.3732 29.7054 22.1649 29.6591 21.9165C29.8001 22.0281 29.9832 22.1312 30.2462 22.1943C30.4693 22.2406 30.7029 22.2385 30.9197 22.1754C30.8418 21.9355 30.7071 21.7145 30.5324 21.5335C30.8439 21.6303 31.1912 21.6072 31.4879 21.4683C31.328 21.262 31.1491 21.0726 30.9533 20.8979C31.3974 21.2578 31.953 21.4156 32.4918 21.3693C32.6559 22.0659 32.4665 22.8299 31.9214 23.375Z" fill="#F2BFA6"/>
<path d="M53.1497 9.83024V20.3529H49.7551V20.0624C49.2248 20.2497 48.6545 20.3529 48.061 20.3529C45.2725 20.3529 43.0038 18.1052 42.9744 15.323V4.33953H46.369V5.79586H51.8618V9.19046H46.369V15.2641C46.369 16.1985 47.1287 16.9583 48.0631 16.9583C48.9975 16.9583 49.7572 16.1985 49.7572 15.2641V9.83024H53.1518H53.1497Z" fill="#E84125"/>
<path d="M65.1771 9.83023V20.3529H61.7825V20.0603C61.2521 20.2497 60.6818 20.3529 60.0883 20.3529C57.2977 20.3529 55.0312 18.1052 55.0017 15.323C55.0017 15.302 55.0017 15.2852 55.0017 15.2641V9.83023H58.3963V15.2641C58.3963 16.1985 59.156 16.9583 60.0904 16.9583C61.0249 16.9583 61.7846 16.1985 61.7846 15.2641V9.83023H65.1792H65.1771Z" fill="#E84125"/>
<path d="M43.9529 23.375C43.8856 23.4423 43.8119 23.5054 43.7361 23.5623C43.3868 23.8295 42.9743 23.9747 42.5597 23.9979C42.0504 24.0274 41.6569 23.8401 41.2149 23.6401C41.1897 23.6275 41.1644 23.6149 41.1391 23.6043C41.1076 23.5896 41.0718 23.5749 41.0381 23.5623C40.613 23.3771 40.1542 23.2739 39.6912 23.2424C39.2893 23.2171 38.8831 23.2487 38.4917 23.3392C38.2938 23.3834 38.1086 23.4528 37.9171 23.5181C37.7551 23.5728 37.7319 23.5118 37.7256 23.356C37.7151 23.0761 37.7256 22.7899 37.7256 22.5079V20.0603C37.1974 20.2497 36.627 20.3529 36.0315 20.3529C35.4359 20.3529 34.8677 20.2518 34.3373 20.0624V20.0856C34.2658 20.0582 34.1795 20.0182 34.0806 19.9635C32.9736 19.5047 32.0644 18.665 31.5173 17.6086C31.1595 16.9225 30.9553 16.148 30.9469 15.323H30.9448V9.83024H34.3373V15.2368C34.3521 16.1249 35.0276 16.8972 35.9178 16.9562C36.9048 17.0193 37.7256 16.2364 37.7256 15.2662V7.73413C37.7256 5.859 39.2451 4.33953 41.1202 4.33953V15.1631C41.1223 15.1968 41.1223 15.2304 41.1223 15.2662V20.1277C41.1412 20.1256 41.1602 20.1256 41.1812 20.1235C41.3685 20.1129 41.56 20.1277 41.7452 20.1677C42.1388 20.2476 42.5134 20.4455 42.8186 20.7485C42.8691 20.799 42.9196 20.8453 42.9743 20.8895H42.9764C42.9764 20.8895 42.9806 20.8958 42.9827 20.8958C43.4268 21.2578 43.9824 21.4156 44.5232 21.3693C44.6853 22.0659 44.498 22.8299 43.9529 23.375Z" fill="#E84125"/>
<path d="M43.9528 23.375C43.8855 23.4423 43.8118 23.5054 43.7361 23.5623C43.3867 23.8295 42.9742 23.9747 42.5596 23.9979C42.0503 24.0274 41.6568 23.8401 41.2148 23.6401C41.7031 23.4697 42.1724 23.2024 41.9178 22.6068C41.8167 22.3732 41.7368 22.1649 41.6905 21.9165C41.8315 22.0281 42.0125 22.1312 42.2776 22.1943C42.5007 22.2406 42.7322 22.2385 42.9511 22.1754C42.8732 21.9355 42.7385 21.7145 42.5617 21.5335C42.8753 21.6303 43.2226 21.6072 43.5193 21.4683C43.3572 21.262 43.1784 21.0726 42.9826 20.8958C43.4267 21.2578 43.9823 21.4156 44.5232 21.3693C44.6852 22.0659 44.4979 22.8299 43.9528 23.375Z" fill="#F2BFA6"/>
<path d="M77.2087 14.8601V20.3529C75.3336 20.3529 73.8141 18.8334 73.8141 16.9583V15.323C73.8141 14.4202 73.1323 13.6331 72.2315 13.5742C71.2445 13.5132 70.4258 14.2918 70.4258 15.2662V23.5623C69.4893 23.5623 68.6391 23.1813 68.0246 22.5668C67.7826 22.3248 67.5763 22.047 67.4164 21.7397C67.1701 21.2683 67.0312 20.7338 67.0312 20.1656V4.33953H67.0334C68.9064 4.33953 70.4258 5.859 70.4258 7.73413V10.4679C70.9562 10.2785 71.5265 10.1754 72.12 10.1754C72.7135 10.1754 73.2859 10.2785 73.8141 10.4679C75.6703 11.1203 77.0319 12.8208 77.1898 14.8601H77.2087Z" fill="#E84125"/>
<path d="M70.4257 21.4535V23.5623C69.4892 23.5623 68.639 23.1813 68.0245 22.5668C67.7825 22.3248 67.5762 22.047 67.4163 21.7397C67.7677 21.9397 68.1381 22.0028 68.4138 21.563C68.5485 21.3483 68.6727 21.1631 68.8515 20.9821C68.8389 21.1631 68.8579 21.3693 68.9568 21.624C69.0452 21.8323 69.1799 22.0217 69.3566 22.167C69.5082 21.9649 69.6155 21.7292 69.6639 21.4809C69.7607 21.7924 69.9775 22.0659 70.2616 22.2301C70.3394 21.9775 70.3942 21.7187 70.4257 21.4535Z" fill="#F2BFA6"/>
<path d="M89.2381 9.83024V23.5602C88.2995 23.5602 87.4514 23.1813 86.8369 22.5668C86.5948 22.3248 86.3907 22.047 86.2308 21.7397C85.9824 21.2704 85.8435 20.7359 85.8435 20.1677V20.0603C85.3132 20.2497 84.7429 20.3529 84.1494 20.3529C81.3588 20.3529 79.0922 18.1052 79.0649 15.323H79.0627V4.33953C79.9993 4.33953 80.8474 4.72045 81.4619 5.33287C82.0743 5.94739 82.4552 6.79551 82.4552 7.73413V15.2073C82.4552 16.108 83.135 16.8972 84.0357 16.9562C85.0228 17.0193 85.8435 16.2385 85.8435 15.2641V9.83024H89.2381Z" fill="#E84125"/>
<path d="M89.2381 21.4683V23.5602C88.2995 23.5602 87.4513 23.1813 86.8368 22.5668C86.5948 22.3248 86.3907 22.047 86.2307 21.7397C86.5822 21.9397 86.9505 22.0028 87.2262 21.563C87.3608 21.3483 87.485 21.1631 87.6639 20.9821C87.6513 21.1631 87.6702 21.3693 87.7691 21.624C87.8596 21.8323 87.9922 22.0217 88.169 22.167C88.3205 21.9649 88.4278 21.7292 88.4762 21.4809C88.5731 21.7924 88.7919 22.0659 89.0739 22.2301C89.1497 21.9818 89.2044 21.7292 89.2381 21.4683Z" fill="#F2BFA6"/>
</g>
<defs>
<clipPath id="clip0_35_449">
<rect width="89.2382" height="24" fill="white"/>
</clipPath>
</defs>
</svg>
