<svg width="90" height="25" viewBox="0 0 90 25" fill="none" xmlns="http://www.w3.org/2000/svg">
<g clip-path="url(#clip0_35_328)">
<path d="M22.851 22.1031C21.9271 23.33 20.2561 23.9382 18.7598 23.5952C17.817 23.3784 17.0089 22.8397 16.2344 22.2399C15.8388 21.9347 15.4515 21.6127 15.0601 21.3118C13.9026 20.4195 12.4568 19.6303 11.0383 19.9838C11.8949 19.3357 12.7682 18.6348 13.8037 18.3065C14.7991 17.9888 15.9903 17.9277 16.9836 18.3107C17.0467 18.336 17.1099 18.3613 17.1709 18.3886C18.2127 18.8621 18.9492 19.7776 19.7363 20.5731C19.7742 20.611 19.81 20.6468 19.8479 20.6847C20.6728 21.4928 21.7104 22.2189 22.851 22.1073V22.1031Z" fill="#F5BFA9"/>
<path d="M22.851 22.1032C21.9271 23.3301 20.2561 23.9383 18.7598 23.5953C17.817 23.3785 17.0088 22.8398 16.2344 22.24C16.3754 22.2757 16.5185 22.3241 16.6279 22.341C17.2151 22.4336 18.12 22.6188 18.1537 21.777C18.1642 21.5244 18.179 21.3013 18.2463 21.0551C18.3263 21.2172 18.4441 21.3897 18.6567 21.5602C18.8377 21.697 19.0481 21.7959 19.2733 21.8317C19.3049 21.5812 19.2796 21.3224 19.1997 21.0846C19.4396 21.3077 19.7637 21.436 20.0899 21.4381C20.033 21.1793 19.951 20.9267 19.8478 20.6826C20.6728 21.4908 21.7103 22.2168 22.851 22.1053V22.1032Z" fill="white"/>
<path d="M17.0972 10.4798V10.7303C17.0909 11.3153 17.0236 11.8857 16.9078 12.4349C16.8931 12.5002 16.8784 12.5654 16.8636 12.6328C16.8615 12.6454 16.8594 12.6559 16.8552 12.6664C16.8468 12.7064 16.8363 12.7464 16.8236 12.7864C16.8152 12.818 16.8068 12.8495 16.7984 12.8811C16.7879 12.919 16.7773 12.959 16.7668 12.9969C16.7563 13.0368 16.7437 13.0747 16.7331 13.1147C16.7016 13.2157 16.67 13.3167 16.6363 13.4178C16.6258 13.4472 16.6132 13.4788 16.6027 13.5104C16.5942 13.5335 16.5858 13.5546 16.5774 13.5777C16.5774 13.5798 16.5774 13.5819 16.5753 13.584C16.5564 13.6387 16.5353 13.6913 16.5143 13.7461C16.3649 14.1249 16.1902 14.4932 15.9902 14.8467C15.9608 14.8972 15.9313 14.9477 15.9019 14.9983C15.8724 15.0488 15.8429 15.0972 15.8114 15.1477C15.7503 15.2466 15.6851 15.3434 15.6199 15.4402C15.5883 15.4886 15.5546 15.537 15.5209 15.5833C15.4894 15.6275 15.4557 15.6717 15.4241 15.718C15.422 15.7222 15.4178 15.7264 15.4157 15.7306C15.3841 15.7727 15.3526 15.8148 15.321 15.8569C15.2936 15.8948 15.2621 15.9327 15.2326 15.9705C15.1947 16.0168 15.1569 16.0631 15.119 16.1094C14.4666 16.8923 13.6753 17.5553 12.7851 18.0624C12.7261 18.0961 12.6672 18.1298 12.6062 18.1635C12.5599 18.1887 12.5136 18.214 12.4673 18.2371C12.4378 18.254 12.4083 18.2687 12.3747 18.2834C12.3494 18.296 12.3263 18.3087 12.301 18.3192C12.2568 18.3402 12.2126 18.3634 12.1663 18.3823C12.1116 18.4076 12.0569 18.4328 12.0022 18.4581C11.5581 18.6538 11.0909 18.8117 10.6048 18.9316C10.3459 18.9947 10.0892 19.0474 9.83241 19.0852C9.81978 19.0873 9.80715 19.0895 9.79453 19.0916C9.74402 19.1 9.6914 19.1063 9.6409 19.1126C9.57145 19.121 9.49989 19.1294 9.42834 19.1379C9.19684 19.161 8.96113 19.1757 8.72543 19.1799C8.67071 19.1799 8.61599 19.1821 8.56127 19.1821C8.50656 19.1821 8.45184 19.1821 8.39502 19.1799C7.94044 19.1715 7.49218 19.1273 7.05864 19.0516C6.9913 19.0389 6.92395 19.0263 6.8545 19.0116C6.8545 19.0116 6.8503 19.0116 6.84819 19.0116C6.7135 18.9842 6.57671 18.9527 6.44412 18.9211C6.3852 18.9064 6.32837 18.8895 6.27155 18.8748C6.23998 18.8664 6.20842 18.858 6.17895 18.8474C6.13897 18.8369 6.10109 18.8243 6.0632 18.8138C6.01901 18.799 5.97481 18.7843 5.92851 18.7696C5.8759 18.7527 5.82539 18.7359 5.77488 18.7191C5.44447 18.6054 5.12038 18.4707 4.8068 18.3171C4.60056 18.2161 4.40063 18.1066 4.2028 17.9909C4.1986 17.9909 4.19439 17.9867 4.19018 17.9846C4.14598 17.9593 4.10389 17.932 4.0597 17.9046C4.05128 17.9004 4.04286 17.8962 4.03444 17.8899C3.99656 17.8667 3.96078 17.8436 3.9229 17.8183C3.87871 17.791 3.83451 17.7615 3.79032 17.7299C3.75033 17.7047 3.71035 17.6773 3.67036 17.6479C3.60512 17.6037 3.54198 17.5574 3.47674 17.509C3.42203 17.4669 3.36941 17.4269 3.31469 17.3848C3.25998 17.3448 3.20736 17.3006 3.15475 17.2585C3.10214 17.2143 3.04952 17.1722 2.99691 17.128C2.17404 16.4209 1.48586 15.5602 0.976568 14.5879C0.974463 14.5816 0.970254 14.5752 0.968149 14.571C0.940791 14.5142 0.911327 14.4595 0.883968 14.4027C0.843983 14.3206 0.803997 14.2385 0.766115 14.1543C0.749279 14.1186 0.732443 14.0828 0.717711 14.0449C0.694561 13.9923 0.671412 13.9397 0.650366 13.8871C0.631426 13.8408 0.612485 13.7945 0.593544 13.7482C0.593544 13.744 0.59144 13.7419 0.59144 13.7398C0.572499 13.6913 0.553558 13.6429 0.534617 13.5924C0.528304 13.5756 0.52199 13.5609 0.517781 13.544C0.515677 13.5356 0.511468 13.5251 0.509363 13.5167C0.494631 13.4767 0.482004 13.4388 0.469377 13.3988C0.389405 13.1652 0.319956 12.9274 0.261029 12.6833C0.250507 12.6412 0.239984 12.597 0.229461 12.5549C0.210521 12.477 0.193684 12.3971 0.178953 12.3171C0.176848 12.3087 0.174744 12.2982 0.172639 12.2855C0.166326 12.2561 0.160012 12.2266 0.153698 12.195C0.143176 12.1361 0.132653 12.0751 0.122131 12.0161C0.111608 11.9488 0.101085 11.8815 0.0926673 11.8141C0.0442632 11.4606 0.0169044 11.1007 0.0126953 10.7366V10.4525C0.0253225 9.85901 0.0989808 9.27816 0.231566 8.71204C0.242089 8.67206 0.252611 8.63417 0.261029 8.59208C0.267343 8.56262 0.275761 8.53526 0.282074 8.5058C0.959731 5.63312 0.827146 2.75834 0.0211134 0.127686C1.58688 0.133999 3.00533 0.769566 4.03234 1.79657C4.36275 2.12698 4.65317 2.49738 4.89309 2.90145C4.93939 2.97932 4.98569 3.05929 5.02778 3.13926C5.4571 3.94108 5.70123 4.85655 5.70123 5.82884V9.09086C5.70123 12.315 7.00813 15.0151 8.60126 14.9562C10.1481 14.8972 11.3919 12.3445 11.3919 9.2045V5.82884C11.3919 4.85655 11.6339 3.94108 12.0653 3.13926C12.1074 3.05929 12.1537 2.97932 12.2 2.90355C13.1933 1.24729 15.0053 0.136104 17.0762 0.127686C17.0762 0.12979 17.0762 0.133999 17.0741 0.136104C16.308 2.63838 16.1523 5.36164 16.7352 8.0891C16.771 8.25326 16.8089 8.41951 16.8489 8.58367C16.8678 8.65732 16.8826 8.72888 16.8994 8.80254C16.9415 8.99615 16.9773 9.18977 17.0067 9.38338C17.0614 9.74957 17.0909 10.1137 17.0972 10.4777V10.4798Z" fill="#F5BFA9"/>
<path d="M16.7332 8.08923C15.7735 7.52522 15.0833 5.99102 15.0833 4.18954C15.0833 2.18183 15.9377 0.506627 17.072 0.13623C16.306 2.64061 16.1502 5.36177 16.7332 8.08923Z" fill="white"/>
<path d="M17.072 0.136138C17.0426 0.232946 17.0131 0.331859 16.9857 0.428667C15.9756 0.944275 15.239 2.51846 15.239 4.38096C15.239 5.68366 15.5989 6.84747 16.1629 7.60299C15.5126 6.8601 15.0833 5.6079 15.0833 4.18735C15.0833 2.17963 15.9377 0.50443 17.072 0.134033V0.136138Z" fill="#F5BFA9"/>
<path d="M8.38239 19.1756C7.92781 19.1672 7.47955 19.123 7.04601 19.0472C6.97867 19.0346 6.90922 19.0219 6.84188 19.0093C6.84188 19.0093 6.83767 19.0093 6.83556 19.0093C6.70087 18.982 6.56618 18.9504 6.43149 18.9167C6.37467 18.902 6.31574 18.8852 6.25892 18.8704C6.22735 18.862 6.19579 18.8536 6.16632 18.8431C6.12844 18.8325 6.08846 18.8199 6.05057 18.8094C6.00638 18.7968 5.96008 18.782 5.91588 18.7673C5.86327 18.7505 5.81276 18.7336 5.76015 18.7168C5.42974 18.601 5.10564 18.4664 4.79417 18.3148C4.58793 18.2138 4.38589 18.1044 4.18807 17.9886C4.18386 17.9886 4.17965 17.9844 4.17544 17.9823C4.13125 17.9571 4.08916 17.9297 4.04496 17.9023C4.03654 17.8981 4.02813 17.8918 4.01971 17.8876C3.98183 17.8645 3.94605 17.8413 3.90817 17.8161C3.86397 17.7887 3.81978 17.7592 3.77558 17.7277C3.7356 17.7024 3.69561 17.675 3.65563 17.6456C3.59038 17.6014 3.52514 17.553 3.46201 17.5067C3.40729 17.4667 3.35257 17.4246 3.29996 17.3825C3.24524 17.3404 3.19263 17.2983 3.14002 17.2562C3.0874 17.2142 3.03479 17.17 2.98218 17.1258C2.1572 16.4186 1.47113 15.5558 0.961833 14.5856C0.959729 14.5793 0.95552 14.5751 0.953415 14.5688C0.923952 14.5119 0.896593 14.4572 0.869234 14.4004C0.829248 14.3183 0.789262 14.2363 0.753485 14.1521C0.736649 14.1163 0.719813 14.0805 0.705081 14.0426C0.681932 13.99 0.658782 13.9374 0.637737 13.8848C0.618796 13.8385 0.599855 13.7922 0.583019 13.7459C0.583019 13.7417 0.57881 13.7396 0.57881 13.7375C0.559869 13.6891 0.540928 13.6407 0.521988 13.5902C0.515674 13.5733 0.509361 13.5586 0.505152 13.5418C0.500943 13.5333 0.498838 13.5228 0.494629 13.5144C1.62476 13.5481 2.82223 13.8238 3.98393 14.3667C6.28418 15.44 7.87941 17.2878 8.37607 19.1798L8.38239 19.1756Z" fill="white"/>
<path d="M16.5985 13.5103C16.5901 13.5334 16.5817 13.5544 16.5733 13.5776C16.5733 13.5797 16.5733 13.5818 16.5712 13.5839C16.5522 13.6386 16.5312 13.6912 16.5102 13.746C16.3607 14.1269 16.1861 14.4931 15.984 14.8466C15.9546 14.8971 15.9251 14.9476 15.8956 14.9982C15.8662 15.0487 15.8346 15.0971 15.8051 15.1476C15.7441 15.2465 15.681 15.3433 15.6136 15.4401C15.5821 15.4885 15.5484 15.5369 15.5147 15.5832C15.4831 15.6274 15.4516 15.6737 15.4179 15.7179C15.4158 15.7221 15.4116 15.7263 15.4074 15.7305C15.3758 15.7726 15.3442 15.8147 15.3106 15.8568C15.2811 15.8947 15.2538 15.9326 15.2222 15.9683C15.1843 16.0146 15.1464 16.0609 15.1085 16.1072C14.4561 16.888 13.6648 17.553 12.7746 18.0602C12.7157 18.0939 12.6568 18.1276 12.5957 18.1591C12.5494 18.1844 12.5031 18.2097 12.4547 18.2328C12.4253 18.2496 12.3937 18.2644 12.3642 18.2791C12.339 18.2917 12.3158 18.3044 12.2906 18.3149C12.2464 18.3359 12.2022 18.357 12.1559 18.378C12.1012 18.4033 12.0465 18.4285 11.9896 18.4538C11.5456 18.6495 11.0784 18.8073 10.5922 18.9273C10.3334 18.9904 10.0766 19.043 9.81987 19.0809C9.80724 19.0851 9.79462 19.0851 9.78199 19.0872C9.73148 19.0957 9.67887 19.102 9.62836 19.1083C9.55891 19.1188 9.48736 19.1251 9.4158 19.1335C9.1843 19.1567 8.9486 19.1714 8.71289 19.1756C9.21166 17.2837 10.8069 15.4359 13.105 14.3626C14.2667 13.8196 15.4663 13.5439 16.5964 13.5103H16.5985Z" fill="white"/>
<path d="M13.6353 15.3896C13.6353 15.3896 13.629 15.4043 13.629 15.4106C13.6227 15.4295 13.6164 15.4464 13.608 15.4653C13.5785 15.5411 13.547 15.6126 13.5112 15.6842C13.1681 15.7094 12.8104 15.802 12.4631 15.962C11.8086 16.2671 11.3225 16.7596 11.0889 17.2899C11.0531 17.2942 11.0194 17.2963 10.9836 17.2963C11.1499 16.6586 11.6887 16.0356 12.4631 15.6737C12.8546 15.4906 13.2586 15.398 13.6374 15.3875L13.6353 15.3896Z" fill="#242424"/>
<path d="M3.46207 15.3896C3.46207 15.3896 3.46838 15.4043 3.46838 15.4106C3.47469 15.4295 3.48101 15.4464 3.48942 15.4653C3.51889 15.5411 3.55046 15.6126 3.58623 15.6842C3.92927 15.7094 4.28704 15.802 4.63429 15.962C5.28879 16.2671 5.77494 16.7596 6.00854 17.2899C6.04432 17.2942 6.07799 17.2963 6.11377 17.2963C5.94751 16.6586 5.40875 16.0356 4.63429 15.6737C4.24284 15.4906 3.83878 15.398 3.45996 15.3875L3.46207 15.3896Z" fill="#242424"/>
<path d="M8.38242 19.1756C8.38242 19.1756 8.36558 19.1756 8.35717 19.1756C7.74896 17.431 6.22318 15.7684 4.08919 14.773C2.94643 14.2405 1.77 13.9648 0.658816 13.9248C0.652502 13.9101 0.646189 13.8954 0.64198 13.8806C0.623039 13.8344 0.604098 13.7881 0.587262 13.7418C0.587262 13.7375 0.585158 13.7354 0.585158 13.7333C0.566217 13.6849 0.547276 13.6365 0.528335 13.586C0.522022 13.5692 0.515708 13.5544 0.511499 13.5376C0.50729 13.5292 0.505186 13.5187 0.500977 13.5103C1.63111 13.5439 2.82858 13.8196 3.99238 14.3626C6.29263 15.4338 7.88786 17.2837 8.38663 19.1756H8.38242Z" fill="#F5BFA9"/>
<path d="M8.71271 19.1756C8.71271 19.1756 8.72954 19.1756 8.73796 19.1756C9.34617 17.431 10.8719 15.7684 13.0059 14.773C14.1487 14.2405 15.3251 13.9648 16.4363 13.9248C16.4426 13.9101 16.4489 13.8954 16.4531 13.8806C16.4721 13.8344 16.491 13.7881 16.5079 13.7418C16.5079 13.7375 16.51 13.7354 16.51 13.7333C16.5289 13.6849 16.5479 13.6365 16.5668 13.586C16.5731 13.5692 16.5794 13.5544 16.5836 13.5376C16.5878 13.5292 16.5899 13.5187 16.5941 13.5103C15.464 13.5439 14.2665 13.8196 13.1027 14.3626C10.8025 15.4338 9.20727 17.2837 8.7085 19.1756H8.71271Z" fill="#F5BFA9"/>
<path d="M8.57811 19.3818C8.9791 19.3818 9.30417 19.1594 9.30417 18.8851C9.30417 18.6108 8.9791 18.3884 8.57811 18.3884C8.17712 18.3884 7.85205 18.6108 7.85205 18.8851C7.85205 19.1594 8.17712 19.3818 8.57811 19.3818Z" fill="#242424"/>
<path d="M0.359825 8.08068C1.31949 7.51667 2.00977 5.98247 2.00977 4.181C2.00767 2.17328 1.15323 0.500186 0.0209961 0.127686C0.787043 2.63207 0.942778 5.35322 0.359825 8.08068Z" fill="white"/>
<path d="M0.0209961 0.135986C0.0504594 0.232794 0.0799228 0.331707 0.107282 0.428515C1.11745 0.944124 1.85404 2.51831 1.85404 4.38081C1.85404 5.68351 1.49416 6.84732 0.930151 7.60284C1.58045 6.85994 2.00977 5.60775 2.00977 4.1872C2.00767 2.18158 1.15323 0.508487 0.0209961 0.135986Z" fill="#F5BFA9"/>
<path d="M31.9214 23.5027C31.8541 23.5701 31.7804 23.6332 31.7046 23.69C31.3574 23.9573 30.9449 24.1025 30.5282 24.1257C30.0189 24.1551 29.6275 23.9678 29.1855 23.7679C29.1603 23.7553 29.135 23.7426 29.1098 23.7321C28.6552 23.5238 28.1606 23.4038 27.6618 23.3701C27.2599 23.3449 26.8516 23.3765 26.4623 23.467C26.2644 23.5111 26.0771 23.5806 25.8856 23.6458C25.7257 23.7006 25.7004 23.6395 25.6962 23.4838C25.6857 23.2039 25.6962 22.9177 25.6962 22.6357V15.394C25.6962 14.4554 24.9386 13.6999 24.0021 13.6999C23.0656 13.6999 22.3079 14.4554 22.3079 15.394V20.2134C22.0533 20.1187 21.6639 19.8914 21.1294 19.3673L21.0389 19.2789C20.9042 19.1422 20.7674 19.0012 20.6327 18.858C20.1361 18.3361 19.5931 17.7658 18.9133 17.286V9.95801H22.3079V10.5957C22.8383 10.4063 23.4086 10.3031 24.0021 10.3031C24.5955 10.3031 25.1659 10.4063 25.6962 10.5957C27.6745 11.2923 29.0908 13.1758 29.0908 15.394V20.2554C29.1119 20.2533 29.1287 20.2533 29.1497 20.2512C29.3391 20.2407 29.5286 20.2554 29.7138 20.2954C30.1094 20.3754 30.4819 20.5732 30.7892 20.8763C30.8397 20.9268 30.8923 20.9731 30.9449 21.0173C30.947 21.0194 30.9512 21.0215 30.9533 21.0257C31.3974 21.3856 31.953 21.5434 32.4917 21.4971C32.6559 22.1937 32.4665 22.9577 31.9214 23.5027Z" fill="#F5BFA9"/>
<path d="M31.9214 23.5027C31.8541 23.57 31.7804 23.6331 31.7047 23.69C31.3574 23.9572 30.9449 24.1024 30.5282 24.1256C30.0189 24.1551 29.6275 23.9678 29.1855 23.7678C29.6738 23.5974 30.141 23.3301 29.8864 22.7345C29.7874 22.5009 29.7054 22.2926 29.6591 22.0442C29.8001 22.1558 29.9832 22.2589 30.2462 22.322C30.4693 22.3683 30.7029 22.3662 30.9197 22.3031C30.8418 22.0632 30.7071 21.8422 30.5324 21.6612C30.8439 21.758 31.1912 21.7349 31.4879 21.596C31.328 21.3897 31.1491 21.2003 30.9533 21.0256C31.3974 21.3855 31.953 21.5433 32.4918 21.497C32.6559 22.1936 32.4665 22.9576 31.9214 23.5027Z" fill="white"/>
<path d="M53.1497 9.95799V20.4806H49.7551V20.1902C49.2248 20.3775 48.6545 20.4806 48.061 20.4806C45.2725 20.4806 43.0038 18.233 42.9744 15.4508V4.46729H46.369V5.92362H51.8618V9.31821H46.369V15.3919C46.369 16.3263 47.1287 17.086 48.0631 17.086C48.9975 17.086 49.7572 16.3263 49.7572 15.3919V9.95799H53.1518H53.1497Z" fill="#F5BFA9"/>
<path d="M65.1771 9.95801V20.4806H61.7825V20.1881C61.2521 20.3775 60.6818 20.4806 60.0883 20.4806C57.2977 20.4806 55.0312 18.233 55.0017 15.4508C55.0017 15.4298 55.0017 15.4129 55.0017 15.3919V9.95801H58.3963V15.3919C58.3963 16.3263 59.156 17.086 60.0904 17.086C61.0249 17.086 61.7846 16.3263 61.7846 15.3919V9.95801H65.1792H65.1771Z" fill="#F5BFA9"/>
<path d="M43.9529 23.5027C43.8856 23.5701 43.8119 23.6332 43.7361 23.69C43.3868 23.9573 42.9743 24.1025 42.5597 24.1256C42.0504 24.1551 41.6569 23.9678 41.2149 23.7679C41.1897 23.7553 41.1644 23.7426 41.1391 23.7321C41.1076 23.7174 41.0718 23.7026 41.0381 23.69C40.613 23.5048 40.1542 23.4017 39.6912 23.3701C39.2893 23.3449 38.8831 23.3764 38.4917 23.4669C38.2938 23.5111 38.1086 23.5806 37.9171 23.6458C37.7551 23.7005 37.7319 23.6395 37.7256 23.4838C37.7151 23.2039 37.7256 22.9177 37.7256 22.6356V20.1881C37.1974 20.3775 36.627 20.4806 36.0315 20.4806C35.4359 20.4806 34.8677 20.3796 34.3373 20.1902V20.2133C34.2658 20.186 34.1795 20.146 34.0806 20.0913C32.9736 19.6325 32.0644 18.7928 31.5173 17.7363C31.1595 17.0502 30.9553 16.2758 30.9469 15.4508H30.9448V9.95799H34.3373V15.3645C34.3521 16.2526 35.0276 17.025 35.9178 17.0839C36.9048 17.147 37.7256 16.3642 37.7256 15.394V7.86188C37.7256 5.98675 39.2451 4.46729 41.1202 4.46729V15.2909C41.1223 15.3245 41.1223 15.3582 41.1223 15.394V20.2554C41.1412 20.2533 41.1602 20.2533 41.1812 20.2512C41.3685 20.2407 41.56 20.2554 41.7452 20.2954C42.1388 20.3754 42.5134 20.5732 42.8186 20.8763C42.8691 20.9268 42.9196 20.9731 42.9743 21.0173H42.9764C42.9764 21.0173 42.9806 21.0236 42.9827 21.0236C43.4268 21.3856 43.9824 21.5434 44.5232 21.4971C44.6853 22.1937 44.498 22.9576 43.9529 23.5027Z" fill="#F5BFA9"/>
<path d="M43.9528 23.5028C43.8855 23.5702 43.8118 23.6333 43.7361 23.6901C43.3867 23.9574 42.9742 24.1026 42.5596 24.1258C42.0503 24.1552 41.6568 23.9679 41.2148 23.768C41.7031 23.5975 42.1724 23.3302 41.9178 22.7347C41.8167 22.5011 41.7368 22.2927 41.6905 22.0444C41.8315 22.1559 42.0125 22.259 42.2776 22.3222C42.5007 22.3685 42.7322 22.3664 42.9511 22.3032C42.8732 22.0633 42.7385 21.8423 42.5617 21.6614C42.8753 21.7582 43.2226 21.735 43.5193 21.5961C43.3572 21.3899 43.1784 21.2005 42.9826 21.0237C43.4267 21.3857 43.9823 21.5435 44.5232 21.4972C44.6852 22.1938 44.4979 22.9577 43.9528 23.5028Z" fill="white"/>
<path d="M77.2087 14.9878V20.4806C75.3336 20.4806 73.8141 18.9611 73.8141 17.086V15.4508C73.8141 14.548 73.1323 13.7609 72.2315 13.7019C71.2445 13.6409 70.4258 14.4196 70.4258 15.394V23.69C69.4893 23.69 68.6391 23.3091 68.0246 22.6946C67.7826 22.4526 67.5763 22.1748 67.4164 21.8675C67.1701 21.3961 67.0312 20.8615 67.0312 20.2933V4.46729H67.0334C68.9064 4.46729 70.4258 5.98675 70.4258 7.86188V10.5957C70.9562 10.4063 71.5265 10.3031 72.12 10.3031C72.7135 10.3031 73.2859 10.4063 73.8141 10.5957C75.6703 11.2481 77.0319 12.9485 77.1898 14.9878H77.2087Z" fill="#F5BFA9"/>
<path d="M70.4257 21.5813V23.69C69.4892 23.69 68.639 23.3091 68.0245 22.6946C67.7825 22.4526 67.5762 22.1748 67.4163 21.8675C67.7677 22.0674 68.1381 22.1306 68.4138 21.6907C68.5485 21.4761 68.6727 21.2909 68.8515 21.1099C68.8389 21.2909 68.8579 21.4971 68.9568 21.7517C69.0452 21.9601 69.1799 22.1495 69.3566 22.2947C69.5082 22.0927 69.6155 21.857 69.6639 21.6086C69.7607 21.9201 69.9775 22.1937 70.2616 22.3578C70.3394 22.1053 70.3942 21.8464 70.4257 21.5813Z" fill="white"/>
<path d="M89.2381 9.95799V23.6879C88.2995 23.6879 87.4514 23.3091 86.8369 22.6946C86.5948 22.4526 86.3907 22.1748 86.2308 21.8675C85.9824 21.3982 85.8435 20.8636 85.8435 20.2954V20.1881C85.3132 20.3775 84.7429 20.4806 84.1494 20.4806C81.3588 20.4806 79.0922 18.233 79.0649 15.4508H79.0627V4.46729C79.9993 4.46729 80.8474 4.8482 81.4619 5.46062C82.0743 6.07514 82.4552 6.92327 82.4552 7.86188V15.3351C82.4552 16.2358 83.135 17.025 84.0357 17.0839C85.0228 17.147 85.8435 16.3663 85.8435 15.3919V9.95799H89.2381Z" fill="#F5BFA9"/>
<path d="M89.2381 21.596V23.6879C88.2995 23.6879 87.4513 23.3091 86.8368 22.6946C86.5948 22.4526 86.3907 22.1748 86.2307 21.8675C86.5822 22.0674 86.9505 22.1306 87.2262 21.6907C87.3608 21.4761 87.485 21.2909 87.6639 21.1099C87.6513 21.2909 87.6702 21.4971 87.7691 21.7517C87.8596 21.9601 87.9922 22.1495 88.169 22.2947C88.3205 22.0927 88.4278 21.857 88.4762 21.6086C88.5731 21.9201 88.7919 22.1937 89.0739 22.3578C89.1497 22.1095 89.2044 21.857 89.2381 21.596Z" fill="white"/>
</g>
<defs>
<clipPath id="clip0_35_328">
<rect width="89.2382" height="24" fill="white" transform="translate(0 0.127686)"/>
</clipPath>
</defs>
</svg>
