<svg width="21" height="21" viewBox="0 0 21 21" fill="none" xmlns="http://www.w3.org/2000/svg">
<path d="M11.6678 0.127686L12.8798 0.302292C20.1034 1.72214 23.4737 10.3545 18.8701 16.2562C13.545 23.0829 2.81481 20.3855 1.13858 12.0427L0.963976 10.8306C0.98527 10.369 0.935869 9.88351 0.963976 9.42442C1.26379 4.5678 5.40154 0.427498 10.2607 0.127686H11.6669H11.6678ZM13.6208 4.69812C12.5468 4.76881 11.1721 4.41449 10.2607 5.14699C9.25566 5.95529 9.40727 7.28996 9.40216 8.44833H8.26935V10.4797H9.40216V16.2605H11.8237V10.4797H13.4641L13.6592 8.44833H11.8237V7.0617C11.8237 6.88794 12.1022 6.65116 12.2725 6.65116H13.62V4.69812H13.6208Z" fill="white"/>
</svg>
