<svg width="21" height="21" viewBox="0 0 21 21" fill="none" xmlns="http://www.w3.org/2000/svg">
<path d="M11.6911 0.127686L13.0663 0.335581C20.0555 1.83771 23.3307 10.0078 19.1472 15.9269C14.1595 22.9834 3.15887 20.7077 1.2384 12.3986L0.984487 10.8352C1.00579 10.3734 0.95637 9.8877 0.984487 9.42846C1.28525 4.55569 5.4125 0.428453 10.2844 0.127686H11.6911ZM8.24465 6.13621C8.24465 5.43754 7.67805 4.87094 6.97938 4.87094C6.28072 4.87094 5.71411 5.43754 5.71411 6.13621C5.71411 6.83488 6.28072 7.40148 6.97938 7.40148C7.67805 7.40148 8.24465 6.83488 8.24465 6.13621ZM14.0742 15.4063H16.2035C16.2589 15.3722 16.2572 15.3288 16.264 15.2717C16.402 14.0933 16.1549 12.6457 16.264 11.4384C16.2111 10.0837 16.0169 8.57302 14.4338 8.26714C13.2733 8.04306 12.3046 8.2714 11.6212 9.25976C11.5974 9.29384 11.6289 9.33218 11.5343 9.31088V8.37279H9.46305V15.4063H11.6119V11.5185C11.6119 11.2407 11.7942 10.6971 11.9825 10.4824C12.3693 10.0428 13.2725 9.95416 13.6976 10.37C13.8996 10.5676 14.0734 11.0882 14.0734 11.3626V15.4072L14.0742 15.4063ZM5.90753 8.37279V15.4063H8.05635V8.37279H5.90753Z" fill="white"/>
</svg>
